<?xml version='1.0' encoding='utf-8'?><!-- Generator: DarwingMaster 2.2.0, SVG Export Plug-In . SVG Version: 6.00 Build 0)--><svg version="1.1" x="0" y="0" viewBox="0 0 1024 1024" xmlns="http://www.w3.org/2000/svg" xmlns:xlink="http://www.w3.org/1999/xlink">
  <style type="text/css">.st2{stroke:none;stroke-width:1;stroke-linecap:butt;stroke-linejoin:miter;fill:#fdfdfc;fill-opacity:1;fill-rule:nonZero;}
.st3{stroke:none;stroke-width:1;stroke-linecap:butt;stroke-linejoin:miter;fill:#58c2ef;fill-opacity:1;fill-rule:nonZero;}
.st4{stroke:none;stroke-width:1;stroke-linecap:butt;stroke-linejoin:miter;fill:#f7c51e;fill-opacity:1;fill-rule:nonZero;}</style>
  <defs/>
  <path class="st2" id="路径1" d="M 0 0 C 337.92 0 675.8399999999995 0 1023.9999999999994 0 C 1023.9999999999994 337.92 1023.9999999999994 675.8399999999984 1023.9999999999994 1023.9999999999984 C 686.0799999999995 1023.9999999999984 348.16 1023.9999999999984 0 1023.9999999999984 C 0 686.0799999999984 0 348.16 0 0  Z "/>
  <path class="st3" id="路径2" d="M 508.7500000000004 515.7000000000004 C 513.5367895600004 515.7192210900004 518.3235409199997 515.7231660700004 523.1103639599996 515.7267143200004 C 528.9427943299996 515.7319143300003 534.7751925299995 515.7463455500003 540.6076049799995 515.7611572300004 C 541.6713515699994 515.7630379500004 542.7350981499994 515.7649186700004 543.8310794799994 515.7668563800004 C 565.7545446199995 515.8171088500004 587.5964296699995 516.5839106200004 609.4318237299995 518.5892822300004 C 610.3456582599994 518.6722052000003 611.2594927999994 518.7551281700004 612.2010192899994 518.8405639600004 C 646.6825556599994 522.0154231800004 681.0352018299994 527.2091573300004 714.9943237299995 533.9642822300004 C 715.7049597199995 534.1043872100004 716.4155956999995 534.2444921900004 717.1477661099995 534.3888427700003 C 750.9101258099994 541.0471530300003 784.7174227799994 548.6092909900004 817.4884643599995 559.1862060500004 C 820.3275753399995 560.0677577600004 823.1848841399994 560.8630148100004 826.0490112299995 561.6595947300004 C 837.0386442599994 564.7784741600004 847.8858840599995 568.3578936400004 858.7443237299995 571.9017822300004 C 860.4689231899994 572.4646090700004 860.4689231899994 572.4646090700004 862.2283630399994 573.0388061500004 C 876.4812266699995 577.7039286500004 890.6765158399995 582.4717430900004 904.6818237299996 587.8392822300004 C 905.8912866199996 588.3006860400004 907.1007495099994 588.7620898400004 908.3468627899994 589.2374755900004 C 916.6648062799994 592.4902364100004 924.8286176999995 596.0639851000004 932.9974975599996 599.6718017600004 C 934.7315874899996 600.4363039400004 934.7315874899995 600.4363039400004 936.5007095299994 601.2162506100004 C 939.3322904399994 602.4647446800004 942.1634834399995 603.7141100200004 944.9943237299996 604.9642822300004 C 945.0880186099996 620.0291408900003 945.1584256199995 635.0939768500003 945.2015724199996 650.1590654400004 C 945.2221442199996 657.1550281700004 945.2501607999994 664.1508092100004 945.2960815399994 671.1466552700005 C 945.3404081699995 677.9029001800004 945.3634876199994 684.6589565300004 945.3738326999994 691.4153377500004 C 945.3812014999994 693.9880315200004 945.3955908999994 696.5607154300004 945.4172439599994 699.1333286300004 C 945.4464434299995 702.7475320900004 945.4502726699994 706.3609653900004 945.4484252899994 709.9752685500004 C 945.4628063999994 711.0297569300004 945.4771874999994 712.0842453000004 945.4920043899994 713.1706878700004 C 945.4400311699994 722.6186768800004 943.0243173399995 731.6377044800004 936.9635620099996 739.0780517600004 C 932.6946103299995 743.1670575500003 927.5210923799996 745.9617445200004 922.4318237299996 748.9017822300003 C 921.1848802599995 749.6386274200004 919.9388031799995 750.3769404800004 918.6935424799996 751.1166259800003 C 915.4478967899995 753.0389670100004 912.1910398199996 754.9413357900004 908.9300537099996 756.8375122100005 C 905.8441096699996 758.6338109000004 902.7652274599994 760.4421183700003 899.6857299799995 762.2494384800003 C 896.0754829599995 764.3669925100004 892.4641477899994 766.4826164600004 888.8488159199994 768.5914794900003 C 879.9917476599994 773.7622128100004 871.2111324999995 779.0496729100004 862.4567260699995 784.3920166000004 C 853.0112027699994 790.1546645900004 843.5163839299995 795.8290829200004 833.9943237299995 801.4642822300003 C 820.4137014699994 809.5042483400003 806.9057731599995 817.6574834700003 793.4298706099995 825.8715087900003 C 788.2068126099995 829.0543678800003 782.9772871899994 832.2265774100005 777.7483520499994 835.3997680700004 C 774.8300878799995 837.1708532300004 771.9122258399995 838.9426006400004 768.9943237299995 840.7142822300003 C 767.8276589999995 841.4226187500004 766.6609923299994 842.1309520800004 765.4943237299995 842.8392822300003 C 764.9168237299995 843.1899072300004 764.3393237299994 843.5405322300004 763.7443237299995 843.9017822300003 C 761.9943237299995 844.9642822300003 760.2443237299995 846.0267822300003 758.4943237299995 847.0892822300003 C 757.6281114999994 847.6151970700004 757.6281114999994 847.6151970700004 756.7444000199995 848.1517364500004 C 755.5774796899994 848.8602234300004 754.4105587099995 849.5687093500004 753.2436370799994 850.2771942100004 C 750.3308462599995 852.0456680100004 747.4180665699995 853.8141601300005 744.5053100599995 855.5826904300004 C 739.2090911199995 858.7983561200004 733.9127839099995 862.0138760100004 728.6160736099995 865.2287323000004 C 714.3344168099994 873.8970407700004 700.0574930799994 882.5730547300003 685.7887573199995 891.2626220700004 C 681.9864974699994 893.5779943600004 678.1837941699995 895.8926377500004 674.3810424799995 898.2072021500004 C 672.4578025499994 899.3778345700003 670.5346253799994 900.5485701200004 668.6115112299995 901.7194091800004 C 663.8587874099994 904.6128796900003 659.1052226999994 907.5049490500005 654.3497924799995 910.3939697300004 C 644.3167177699994 916.4914519500005 634.3009105099994 922.6155800600005 624.3068237299995 928.7767822300004 C 614.6375097899994 934.7376842600005 604.9399985099994 940.6499470100003 595.2251892099995 946.5362121600004 C 586.7941519899995 951.6455746200004 578.3855345799994 956.7896489700005 569.9943237299995 961.9642822300004 C 566.7904995699994 963.9370038600005 563.5861941899994 965.9089399000004 560.3815307599995 967.8802978500004 C 558.0147725799994 969.3364494900004 555.6485978399994 970.7935235800004 553.2828979499994 972.2513916000004 C 550.1165631699994 974.2016992900004 546.9463950899994 976.1456527200004 543.7738647499995 978.0858642600004 C 542.5649792699994 978.8264167600004 541.3572549299994 979.5688687600003 540.1508178699994 980.3134033200004 C 521.9363433299994 991.5495551500004 521.9363433300003 991.5495551500005 513.4943237300004 991.4642822300004 C 511.9629174800003 991.4797509800005 511.9629174800004 991.4797509800005 510.4005737300004 991.4955322300004 C 501.4915821000004 990.1060564700006 493.8131371100004 984.6425156700004 486.2443237300004 980.0267822300004 C 485.1503125000004 979.3650903300005 484.0563012700004 978.7033984400003 482.9291381800004 978.0216552700005 C 475.1193742800004 973.2877960600005 467.3490972800004 968.4908478200005 459.5944213900004 963.6674072300004 C 452.9847765700004 959.5604434600004 446.3262061900004 955.5410258600003 439.6466674800004 951.5489990200005 C 430.3632953600004 945.9980139200004 421.1303828700004 940.3647970800004 411.8956909200004 934.7333252000004 C 404.28903953000037 930.0953416900004 396.67793379000034 925.4646755900004 389.0665893600003 920.8343994100004 C 385.85916371000036 918.8820090400004 382.6533116600004 916.9270498900005 379.4474487300004 914.9720947300004 C 366.1777416300004 906.8888942500005 352.8571428500004 898.8992381600004 339.4841003400004 890.9881164600005 C 330.6236393900004 885.7442130800003 321.8221160000004 880.4234957600004 313.0934448200004 874.9620849600004 C 304.32918475000037 869.5022831900004 295.4323951100004 864.2682098500004 286.5446167000004 859.0131103500004 C 271.7532998700004 850.2645667900005 271.7532998700002 850.2645667900005 264.99432373000025 845.9642822300003 C 255.21484389000022 839.7483453400004 245.1908617000002 833.9282423800004 235.22099304000017 828.0251037600004 C 234.52744217000014 827.6144467200004 233.83389130000015 827.2037896700004 233.11932373000016 826.7806884800003 C 232.42637711000012 826.3704342700004 231.73343048000012 825.9601800500003 231.01948547000015 825.5374939000004 C 224.68518608000014 821.7853408900004 218.36772845000016 818.0056722200004 212.05682373000016 814.2142822300003 C 211.05046875000014 813.6099536100004 210.0441137700002 813.0056250000004 209.00726318000017 812.3829834000004 C 203.97352700000016 809.3588411400004 198.94227467000016 806.3306009300004 193.91229248000016 803.3002197300003 C 179.71054355000015 794.7516598400003 165.43467216000013 786.3373021800004 151.12628174000017 777.9692108200004 C 143.94599075000016 773.7683979800004 136.78415092999992 769.5366245300004 129.62713622999993 765.2963134800003 C 126.02408611999991 763.1619191200003 122.41607981999991 761.0362260700005 118.80380248999992 758.9174835200004 C 116.37700815999992 757.4933123700004 113.95219247999992 756.0657919100004 111.52758788999992 754.6378967300004 C 109.80445544999989 753.6246415400004 108.0788752999999 752.6155524400004 106.3532104499999 751.6066162100004 C 82.5783196899999 737.5899694900004 82.5783196899999 737.5899694900004 78.99432372999992 723.9642822300003 C 78.7096093599999 720.0952821000004 78.7417187199999 716.2371556300004 78.7672729499999 712.3593017600004 C 78.76698089999992 711.1977507000004 78.76668883999987 710.0361996500004 78.76638793999992 708.8394500700005 C 78.76777880999988 705.0085883900005 78.78332892999988 701.1779223400004 78.79901122999992 697.3470947300003 C 78.80274221999993 694.6876573800004 78.80568719999992 692.0282307900004 78.80758666999988 689.3687927200004 C 78.81379301999989 683.0897079600004 78.83019232999989 676.8106931800004 78.85028564999989 670.5316391700004 C 78.87267101999988 663.3804972300004 78.88364469999989 656.2293518800004 78.89367651999989 649.0781836000004 C 78.91455934999989 634.3735140900004 78.9497188299999 619.6688993800004 78.99432372999992 604.9642822300004 C 85.85697947999991 601.7648825300004 92.70616194999992 598.5807698700004 99.72479247999992 595.7377197300004 C 100.39002425999992 595.4682301300004 101.0552560399999 595.1987405400004 101.74064635999991 594.9210845900004 C 103.88564218999988 594.0552328000003 106.03320346999989 593.1960982000004 108.18182372999992 592.3392822300004 C 108.93687194999991 592.0378128100004 109.6919201699999 591.7363433800004 110.4698486299999 591.4257385300003 C 148.43886388999988 576.3069509500004 187.48209089000014 563.4026936100004 226.99432373000016 552.9642822300004 C 228.26243896000014 552.6247753900004 229.5305542000001 552.2852685500004 230.8370971700001 551.9354736300004 C 252.71278193000012 546.0846676700004 274.70381242000036 541.0067777400004 296.8743896500004 536.4063598600004 C 298.8869499900004 535.9866732700004 300.8981544900004 535.5611464600004 302.90887451000043 535.1327392600003 C 370.7693853000004 520.7078088100004 439.4782317000004 515.3676581000004 508.7500000000004 515.7000000000004  Z "/>
  <path class="st4" id="路径3" d="M 517.0000000000002 1.9999999999999925 C 524.3016855500002 4.996352109999993 531.0984029999994 9.300749990000002 537.8749999999994 13.312500000000002 C 546.8407656599994 18.58173033 555.8392509199995 23.789400950000022 564.8749999999994 28.93750000000002 C 573.9970839599995 34.13614750000002 583.1009130299994 39.36441643000002 592.1874999999994 44.62500000000002 C 601.6591234399995 50.105481240000024 611.1868822799994 55.47664918000002 620.7468261699994 60.80126953000001 C 628.8869919399995 65.34726759000002 636.9410895899995 70.0297027999999 644.9809570299994 74.75024413999991 C 653.1423119299994 79.5298184599999 661.3846092199994 84.1535773299999 669.6489257799994 88.7521972699999 C 676.7762826699994 92.7281563499999 683.8393909199995 96.8016399799999 690.8749999999994 100.9374999999999 C 699.3496501499994 105.9173339499999 707.8940017699994 110.7508910299999 716.4999999999994 115.4999999999999 C 726.1081314199995 120.8021232199999 735.6217893199995 126.23960864999991 745.0820312499994 131.80078124999991 C 752.1716102699994 135.95900196999992 759.3180349299995 140.00370966999992 766.4999999999994 143.99999999999991 C 774.6819084199994 148.5526929199999 782.8031356999994 153.1924806899999 790.8749999999994 157.93749999999991 C 799.3496501499994 162.91733394999991 807.8940017699994 167.7508910299999 816.4999999999994 172.49999999999991 C 826.1058323499994 177.8008545099999 835.6167476299994 183.23779098999992 845.0754394499994 188.7963867199999 C 853.2761311699994 193.6051621899999 861.5554519599995 198.2631926599999 869.8581542999995 202.8930664099999 C 878.9946213899995 207.98893895999993 888.0882391199995 213.15580054999992 897.1586914099995 218.3681640599999 C 899.1914035799995 219.5356024699999 901.2250371999994 220.7014370299999 903.2592773399994 221.86621093999992 C 906.7160862199995 223.8455958899999 910.1707450199995 225.82866217999992 913.6249999999994 227.81249999999991 C 914.6916186499994 228.4227905299999 915.7582372999995 229.0330810499999 916.8571777299994 229.6618652299999 C 921.9651757699994 232.60145273999993 927.0394109699995 235.58954298999993 932.0507812499994 238.69140624999991 C 932.9187231399994 239.22838134999992 933.7866650399994 239.76535644999993 934.6809081999994 240.31860351999993 C 939.8432560999994 244.0614280199999 942.9188267299994 249.05160493000042 944.9999999999994 255.00000000000043 C 945.2483969899994 257.5125411200005 945.2483969899995 257.51254112000044 945.2460956599996 260.2223634700004 C 945.2520687999995 261.7786988800004 945.2520687999994 261.7786988800004 945.2581626199994 263.3664754000004 C 945.2523369299994 264.4997409400004 945.2465112499995 265.6330064800004 945.2405090299994 266.8006134000004 C 945.2430723099994 268.6139935100004 945.2430723099995 268.6139935100004 945.2456873699996 270.4640075600004 C 945.2484120499996 273.8162623200004 945.2421615699994 277.1682835600004 945.2321312399994 280.5205100800004 C 945.2234946099994 284.1366795000004 945.2264170599994 287.7528417200004 945.2279357899994 291.3690185500004 C 945.2289845099993 297.6331789300004 945.2227092999995 303.8972976300004 945.2114601099994 310.1614475300004 C 945.1952062699994 319.2183514300004 945.1899972299996 328.2752351800004 945.1874841299996 337.3321520900004 C 945.1831068499996 352.0263777900004 945.1697968299995 366.7205812800004 945.1508789099996 381.4147949200004 C 945.1325209699995 395.6888823300004 945.1183640399994 409.9629637100004 945.1098632799994 424.2370605500004 C 945.1090751099995 425.5568356600004 945.1090751099996 425.5568356600004 945.1082710199996 426.9032729000004 C 945.1056609399996 431.3172207100004 945.1031335299995 435.7311685700004 945.1006472099996 440.1451164500004 C 945.0799136699995 476.7634266400004 945.0446872299995 513.3817115900004 944.9999999999994 550.0000000000003 C 943.9696765099994 549.6564497400003 942.9393530299994 549.3128994800004 941.8778076199994 548.9589386000004 C 938.0021895599995 547.6666847000004 934.1265281099994 546.3745610100003 930.2508544899994 545.0824737500003 C 928.5833624499994 544.5265392400004 926.9158816899994 543.9705708700003 925.2484130899994 543.4145660400003 C 913.8240688099994 539.6051277400003 913.8240688099995 539.6051277400003 902.3969726599996 535.8039550800004 C 901.5573599199995 535.5249787900003 900.7177471899994 535.2460025000004 899.8526916499994 534.9585723900003 C 887.4246421799994 530.8853969800003 874.7524079299994 527.8066693200003 862.0458984399994 524.7373046900003 C 858.2752253099994 523.8245575900004 854.5123483499995 522.8839535400003 850.7499999999994 521.9375000000003 C 849.5318359399995 521.6345703100003 848.3136718699994 521.3316406200004 847.0585937499994 521.0195312500003 C 843.9423376199994 520.2414526300004 840.8322502299994 519.4409906200003 837.7226562499994 518.6367187500003 C 784.0768130499995 504.8446624400003 729.0063574599994 496.9651003400004 673.9999999999994 491.0000000000004 C 676.6572124499994 488.3427875500004 679.4231662799995 488.0473505100004 682.9804687499994 487.3007812500004 C 683.6922074899994 487.1451370200004 684.4039462299994 486.9894928000004 685.1372528099995 486.8291320800004 C 687.4859430899994 486.31692959000037 689.8366952999994 485.8148999700004 692.1874999999994 485.3125000000004 C 693.8278230199994 484.9560156800004 695.4679580899995 484.5986654800004 697.1079101599994 484.2404785200004 C 700.4589073499994 483.5089236600004 703.8105214499994 482.78030470000044 707.1625976599994 482.0537109400004 C 714.0751117399994 480.55193431000043 720.9756287799994 478.9984699300004 727.8749999999994 477.4375000000004 C 729.1230541999995 477.1559204100004 730.3711083999995 476.8743408200004 731.6569824199994 476.5842285200004 C 738.1339620699995 475.1184938500004 744.6053151899995 473.6308463200004 751.0703124999994 472.1132812500004 C 751.7381173699995 471.9566551200004 752.4059222399994 471.8000289900004 753.0939636199995 471.6386566200004 C 756.2613660099994 470.8951685600004 759.4278863999995 470.1483341000004 762.5932617199994 469.3962402300004 C 771.0294670699994 467.4068155900004 779.4925113499994 465.6532409700004 787.9999999999994 464.0000000000004 C 761.0991848599995 463.8494962100004 734.2098326699994 464.0979526100004 707.3124999999994 464.5000000000004 C 706.5122615799994 464.5119578200004 705.7120231599994 464.5239156300004 704.8875350999995 464.5362358100004 C 694.9249398699994 464.6855884400004 684.9624347299995 464.8402898400004 674.9999999999994 465.0000000000004 C 677.9985033299994 462.6901166100004 680.8265397399995 461.0354983300004 684.2929687499994 459.4960937500004 C 685.3759423799994 459.0125341800004 686.4589160199995 458.5289746100004 687.5747070299994 458.0307617200004 C 688.7669287099994 457.5049853500004 689.9591503899994 456.9792089800004 691.1874999999994 456.4375000000004 C 692.4700398699994 455.8676889900004 693.7524246099994 455.2975287000004 695.0346679699994 454.7270507800004 C 699.3524998799994 452.8090598900004 703.6757070499995 450.9033714300004 707.9999999999994 449.0000000000004 C 708.7670526099995 448.6623260500004 709.5341052199994 448.3246521000004 710.3244018599994 447.9767456100004 C 717.8290565899994 444.6741081500004 725.3363515299994 441.37749961000037 732.8461914099994 438.0866699200004 C 745.5960458499994 432.4993833200004 758.3324081399994 426.8821562700004 771.0624999999994 421.2500000000004 C 784.3015851199995 415.3926934700004 797.5520637199994 409.56305537000037 810.8219604499994 403.7759094200004 C 821.5078380899994 399.1137723400004 832.1489929599994 394.3568134700004 842.7795410199994 389.5700683600004 C 853.1321598399994 384.9178643500004 863.5468887899995 380.4211519600004 873.9999999999994 376.0000000000004 C 860.7296687699994 378.7201531900004 847.4825512799995 381.5275149700004 834.2639160199994 384.4890136700004 C 827.2444001199995 386.0604297000004 820.2206095699995 387.6092895700004 813.1914062499994 389.1367187500004 C 795.2999660199995 393.0281936200004 777.4527568799994 397.0192297800004 759.6679687499994 401.3750000000004 C 745.4571512399995 404.8543508400004 731.2031283299995 408.1638534800004 716.8749999999994 411.1250000000004 C 706.5902530899995 413.2566813500004 696.4358271299994 415.8247680100004 686.2830810499994 418.5108337400004 C 683.4480103199994 419.2596652500004 680.6115530499994 420.0031726300004 677.7750244099994 420.7464599600004 C 675.6437611399995 421.3075607300004 673.5147904299994 421.8768506900004 671.3857421899994 422.4462890600004 C 670.0619540199995 422.7940199900004 668.7380650199995 423.1413673800004 667.4140624999994 423.4882812500004 C 665.6344311499994 423.96068237000037 665.6344311499994 423.96068237000037 663.8188476599994 424.4426269500004 C 660.9999999999994 425.0000000000004 660.9999999999994 425.0000000000004 658.9999999999994 424.0000000000004 C 667.6932844699994 417.1947123700004 676.3966967499995 410.4089500600004 685.2499999999994 403.8125000000004 C 690.6878544999994 399.7591767800004 696.0520510199995 395.6285915700004 701.3691406199995 391.4184570300004 C 707.5025236299995 386.5756827700004 713.7307740999994 381.8589990100004 719.9550781199995 377.1340332000004 C 725.9022877299994 372.6140465600004 731.8059758399994 368.0425155800004 737.6874999999994 363.4375000000004 C 743.6662309899995 358.7606210400004 749.6861111299994 354.2198352700004 755.9999999999994 350.0000000000004 C 743.6283526499994 355.7177072900004 731.4285394199994 361.7600385000004 719.2499999999994 367.8750000000004 C 708.4025507299995 373.3197100400004 697.5487187199994 378.7361738000004 686.5744628899994 383.9223632800004 C 680.9528178299994 386.5796437600004 675.3600750099994 389.2894750700004 669.7812499999994 392.0351562500004 C 667.6278852399995 393.0911788100004 665.4742175999994 394.1465812500004 663.3204650899994 395.2018127400004 C 661.9056582799994 395.8970807900004 660.4922068899995 396.5951142100004 659.0801696799995 397.2959899900004 C 657.1128454599994 398.2721548300004 655.1410027599994 399.2385657300004 653.1679687499994 400.2031250000004 C 651.4551672399995 401.0485888700004 651.4551672399995 401.0485888700004 649.7077636699994 401.9111328100004 C 648.8142016599994 402.2704589800004 647.9206396499994 402.6297851600004 646.9999999999994 403.0000000000004 C 646.3399999999995 402.6700000000004 645.6799999999995 402.3400000000004 644.9999999999994 402.0000000000004 C 645.3660937499994 401.5849218800004 645.7321874999994 401.1698437500004 646.1093749999994 400.7421875000004 C 649.0123086199994 397.4383725700004 651.9004464799995 394.1234291300004 654.7499999999994 390.7734375000004 C 660.5565251599994 383.9503624700004 666.4606736299994 377.2501417700004 672.5429687499994 370.6718750000004 C 675.1677775899994 367.8175518800004 677.7243867799995 364.9128495200004 680.2656249999994 361.9843750000004 C 684.5567995199995 357.0746528000004 688.9580210799994 352.2612518200004 693.3281249999994 347.4218750000004 C 696.7234493799995 343.6569915000004 700.1105834199994 339.8880644900004 703.4374999999994 336.0625000000004 C 707.0905795599995 331.8669677900004 710.8450554899995 327.7662644700004 714.5937499999994 323.6562500000004 C 716.5864895299994 321.4564725900004 718.5533813999995 319.2404478200004 720.4999999999994 317.0000000000004 C 723.2881409799994 313.7910075600004 726.1352818499994 310.6408355600004 728.9999999999994 307.5000000000004 C 732.4532815299995 303.7133700200004 735.8609905099994 299.8952368000004 739.2226562499994 296.0273437500004 C 742.0543294699994 292.7973692400004 744.9420250699994 289.6180934400004 747.8203124999994 286.4296875000004 C 749.6914509399994 284.3439382000004 751.5392483099994 282.2418237200004 753.3749999999994 280.1250000000004 C 756.8278381899994 276.1582510000004 760.3887738099994 272.2931733100004 763.9504394499994 268.4245605500004 C 767.0826887199994 265.0167121000004 770.1529544899994 261.5644212100004 773.1835937499994 258.0664062500004 C 775.4642622299995 255.47183932000038 777.7946455999994 252.9250048799999 780.1249999999994 250.37499999999991 C 783.5177918799994 246.6563759699999 786.8299883599994 242.9096810199999 789.9999999999994 238.99999999999991 C 783.8237519499994 242.99479177999993 777.9552029599994 247.2509490799999 772.1874999999994 251.81249999999991 C 770.5995734099994 253.05807618999992 769.0110316999994 254.30286861000042 767.4218749999994 255.54687500000043 C 766.6606835899994 256.1430664100004 765.8994921899995 256.7392578100004 765.1152343799994 257.3535156200004 C 761.4780328399994 260.18468912000037 757.7817475399994 262.9333621000004 754.0859374999994 265.6875000000004 C 749.6687370099994 268.9976046700004 745.2893460899994 272.3564119400004 740.9077148399995 275.7133789100004 C 736.9019109099994 278.7818229600004 732.8921520299995 281.8448591000004 728.8749999999994 284.8984375000004 C 719.6971868299994 291.8755091100004 710.5512985299994 298.8881052900004 701.4660644499994 305.9853515600004 C 696.6022816099994 309.7765522900004 691.6940541399994 313.50172587000037 686.7499999999994 317.1875000000004 C 680.6579077299995 321.7303262300004 674.6565619099994 326.3731920100004 668.6953124999994 331.0859375000004 C 664.4825949699995 334.4151577400004 660.2411477099994 337.70712530000037 655.9999999999994 341.0000000000004 C 650.5493362899995 345.2334694400004 645.1088138499994 349.4790101700004 639.6874999999994 353.7500000000004 C 633.1660446699995 358.8869964200004 626.5910351599995 363.9527122700004 619.9999999999994 369.0000000000004 C 619.9999999999994 365.6693482800004 620.6422869299994 364.3958430100004 622.1679687499994 361.4843750000004 C 622.8796520999995 360.1199829100004 622.8796520999995 360.1199829100004 623.6057128899994 358.7280273400004 C 624.1277026399995 357.7452783200004 624.6496923799995 356.7625293000004 625.1874999999994 355.7500000000004 C 625.7256030299994 354.7272900400004 626.2637060499994 353.7045800800004 626.8181152299994 352.6508789100004 C 631.1302906099994 344.5100201400004 635.6408070099994 336.4903447900004 640.2094726599994 328.4914550800004 C 644.2693958999995 321.3608130700004 648.1226516299995 314.14215833000037 651.8999023399995 306.8586425800004 C 659.5876672999995 292.0522142100004 667.6275124599994 277.4302285200004 675.9999999999994 263.0000000000004 C 672.4399750499994 266.51504269000037 668.9970173799994 270.1161011100004 665.6249999999994 273.8125000000004 C 665.1416821299994 274.3409350600004 664.6583642599994 274.8693701200004 664.1604003899994 275.4138183600004 C 660.9958265899994 278.8829526400004 657.8845472299994 282.3933639800004 654.8085937499994 285.9414062500004 C 652.5698874999995 288.4895665000004 650.2858978799994 290.9941059300004 647.9999999999994 293.5000000000004 C 643.0142427099994 298.9723552200004 638.1157285299994 304.5052889400004 633.3242187499994 310.1484375000004 C 627.7290803199994 316.7286159900004 622.0462513199994 323.1928619500004 616.1606445299994 329.5151367200004 C 612.3531502899995 333.6053219400004 608.6508429099994 337.7703649200004 604.9999999999994 342.0000000000004 C 603.6884177899994 343.5008025700004 602.3759258999994 345.0008106700004 601.0624999999994 346.5000000000004 C 600.4759765599995 347.1703125000004 599.8894531299994 347.8406250000004 599.2851562499994 348.5312500000004 C 598.6490039099995 349.2582812500004 598.6490039099995 349.2582812500004 597.9999999999994 350.0000000000004 C 596.6629846699994 345.9889540100004 597.7029511099994 344.2857118100004 599.1054687499994 340.3164062500004 C 599.3400176999994 339.6434904500004 599.5745666499994 338.9705746500004 599.8162231399995 338.2772674600004 C 600.3280799899994 336.8116101300004 600.8440178699994 335.3473732600004 601.3634948699994 333.8843994100004 C 602.4941896099995 330.6983034000004 603.6039467999994 327.5050366500004 604.7149810799995 324.3120422400004 C 605.2946912999994 322.6464014400004 605.8753839899995 320.9811022900004 606.4570159899994 319.3161315900004 C 609.1906181899994 311.4847771800004 611.8272507799994 303.6231709900004 614.4374999999994 295.7500000000004 C 614.9143775799994 294.3139343500004 615.3913497199994 292.8779001000004 615.8684081999994 291.4418945300004 C 616.6534215999994 289.0788823300004 617.4383529599994 286.7158432900004 618.2228546099994 284.3526611300004 C 620.5648139799995 277.3008855000004 622.9182920699994 270.2529744300004 625.2735252399995 263.2056236300004 C 637.7047463199995 226.0106304500004 637.7047463199995 226.01063044999992 649.9374999999994 188.74999999999991 C 650.2105999799994 187.9110519399999 650.4836999499994 187.0721038799999 650.7650756799994 186.2077331499999 C 654.5755916199995 174.4923738599999 658.3054262599994 162.7524037999999 661.9999999999994 150.99999999999991 C 654.8080549499995 163.8194030999999 647.6322048499994 176.6472504699999 640.4999999999994 189.49999999999991 C 633.9437922599994 201.3132083399999 627.3509679499995 213.10551354999993 620.7426757799994 224.88964843999992 C 618.9704986599994 228.0526543899999 617.2016060099994 231.21747685999992 615.4335937499994 234.38281249999991 C 609.5177036699994 244.97033588999992 603.5666000199994 255.5350707200004 597.5341796899994 266.0566406200004 C 590.6316878799994 278.1120817700004 583.8792622999994 290.2524141100004 577.1123046899994 302.3842773400004 C 575.8513488499995 304.6448661200004 574.5897991099995 306.9051237200004 573.3276367199994 309.1650390600004 C 572.1481870299995 311.2768936800004 570.9700315799994 313.3894718900004 569.7934570299994 315.50292969000037 C 561.9123578399995 329.6104028100004 561.9123578399995 329.6104028100004 558.9999999999994 334.0000000000004 C 558.6699999999994 334.0000000000004 558.3399999999995 334.0000000000004 557.9999999999994 334.0000000000004 C 558.4854882899995 322.5723525400004 559.4413096799994 311.31130933000037 560.9273986799994 299.9718322800004 C 563.1924909999994 282.6162668200004 565.0743692499994 265.22797532999994 566.8124999999994 247.81249999999991 C 566.9787286399994 246.1636279299999 566.9787286399994 246.1636279299999 567.1483154299995 244.4814453099999 C 567.4633087099994 241.34866614999993 567.7736709399994 238.21546956999993 568.0820312499994 235.08203124999991 C 568.1755335999994 234.1494197099999 568.2690359499994 233.21680816999992 568.3653716999994 232.25593566999993 C 568.7948336399994 227.8170144599999 569.1081329299994 223.4665802899999 568.9999999999994 218.99999999999991 C 555.6223531999995 258.6592282099999 555.6223531999995 258.6592282100004 542.9999999999994 298.5625000000004 C 541.7076844399994 302.7611709300004 540.3719816299995 306.9412538400004 538.9843749999994 311.1093750000004 C 538.6182812499994 312.2095092800004 538.2521874999994 313.3096435500004 537.8749999999994 314.4431152300004 C 536.2543809499995 319.2968833400004 534.6297527799994 324.1492911300004 532.9999999999994 329.0000000000004 C 532.6699999999994 329.0000000000004 532.3399999999995 329.0000000000004 531.9999999999994 329.0000000000004 C 531.0942452899994 324.9539427100004 530.6833473399994 320.9708023700004 530.3515624999994 316.8398437500004 C 530.2337191499994 315.4059181800004 530.1157958499995 313.9719991900004 529.9978027299994 312.53808594000037 C 529.9371261599995 311.7881335400004 529.8764495799994 311.0381811500004 529.8139343299995 310.2655029300004 C 528.7450071699994 297.0944418400004 527.5141432199995 283.9570761300004 526.0573730499995 270.8227539100004 C 525.1559735899995 262.6393557600004 524.3842476399996 254.4523537599999 523.7341308599996 246.24511718999992 C 523.2892370199995 240.7845312299999 522.6932367399997 235.3522116899999 522.0312499999998 229.91406249999991 C 521.0634924599998 221.9049655899999 520.35708607 213.8904736099999 519.73849487 205.8476867699999 C 519.42948399 201.83536765999992 519.1087844300001 197.8239774699999 518.7890625000001 193.81249999999991 C 518.7241813700001 192.9958839399999 518.6593002300001 192.1792678799999 518.5924530000001 191.3379058799999 C 517.9194865800001 182.9087499199999 517.1864106500002 174.48520617999992 516.4375000000002 166.06249999999991 C 516.3747689800002 165.35608367999993 516.3120379600002 164.6496673599999 516.2474060100002 163.92184447999992 C 515.3896420000002 154.2740523299999 514.5160776300004 144.62768949999992 513.6330566400003 134.9821777299999 C 513.0551365400004 128.6574051999999 512.5075375500004 122.3308631499999 512.0000000000003 115.9999999999999 C 510.2664330400003 117.7335669599999 510.60824309000037 120.1482207199999 510.3991699200004 122.5180664099999 C 510.2918705700004 123.7095629899999 510.1845712300004 124.9010595699999 510.0740203900004 126.1286621099999 C 509.9606483500004 127.4397192399999 509.8472763100004 128.7507763699999 509.7304687500004 130.10156249999991 C 509.6087969600004 131.47260802999992 509.4867446300004 132.84361983999992 509.3643341100004 134.2145996099999 C 509.0352654600004 137.91342251999993 508.71189486000037 141.61272402999992 508.3895874000004 145.3121414199999 C 508.1193509300004 148.4049554599999 507.8456302200004 151.49745678999992 507.5718212100004 154.5899562799999 C 505.9267743000004 173.17064348999992 504.3290326500004 191.7551742999999 502.7723388700004 210.3434753399999 C 501.20657613000037 229.01003064999992 499.4761000300004 247.66079913000038 497.7397079500004 266.3120613100004 C 495.7021787800004 288.1981994900004 493.7367975300004 310.0876398900004 492.0000000000004 332.0000000000004 C 489.7316289500004 329.7316289500004 489.3164841200004 328.3526985600004 488.3745117200004 325.3181152300004 C 487.9107966600004 323.8412348200004 487.9107966600004 323.8412348200004 487.4377136200004 322.3345184300004 C 486.9387406900004 320.7129357100004 486.9387406900004 320.7129357100004 486.4296875000004 319.0585937500004 C 485.8991728200004 317.3625072500004 485.8991728200004 317.3625072500004 485.3579406700004 315.6321563700004 C 484.3925836100004 312.5441648300004 483.43238359000037 309.4546211300004 482.4738159200004 306.3645172100004 C 480.8643518700004 301.1851877400004 479.2381581200004 296.0110655600004 477.6138992300004 290.8363609300004 C 477.1978580300004 289.5107742800004 476.7820219400004 288.1851232400004 476.3663864100004 286.8594093300004 C 472.0073556200004 272.9581273500004 467.5282680600004 259.09708099999995 463.0000000000004 245.24999999999991 C 462.4863589500004 243.6753144799999 462.4863589500004 243.6753144799999 461.9623413100004 242.0688171399999 C 460.9978370300004 239.1128910799999 460.0307820100004 236.1578154599999 459.0625000000004 233.20312499999991 C 458.6386955300004 231.9054192399999 458.6386955300004 231.9054192399999 458.2063293500004 230.5814971899999 C 457.9435922200004 229.7827769499999 457.68085510000043 228.9840566999999 457.4101562500004 228.1611328099999 C 457.1846508800004 227.4736798099999 456.9591455100004 226.7862268099999 456.7268066400004 226.07794188999992 C 455.8906073800004 223.68724622999991 454.9548516500004 221.3455221499999 454.0000000000004 218.99999999999991 C 454.9806540900004 228.0147196099999 455.9632325100004 237.0292286799999 456.9468193100004 246.0436286899999 C 457.18645336000037 248.2404052299999 457.42589921000047 250.43720220999995 457.6653137200004 252.63400268999993 C 459.27065272000044 267.35998234999994 460.8802400100004 282.0851252100004 462.5781250000004 296.8007812500004 C 462.7550261700004 298.3369761700004 462.7550261700004 298.3369761700004 462.9355011000004 299.9042053200004 C 463.4768788600004 304.5979656200004 464.0232076400004 309.2910757300004 464.5769043000004 313.98339844000037 C 464.7688230800004 315.6360554500004 464.9606427100004 317.2887239700004 465.1523437500004 318.9414062500004 C 465.2394964600004 319.6645954900004 465.32664917000045 320.3877847300004 465.4164428700004 321.1328887900004 C 465.91435822000045 325.4621795800004 466.0768727500004 329.6522616100004 466.0000000000004 334.0000000000004 C 462.5614556900004 329.9935513100004 460.1096307400004 325.8072478400004 457.6250000000004 321.1875000000004 C 453.5885804800004 313.7953181000004 449.3973788500004 306.5081292200004 445.1250000000004 299.2500000000004 C 440.0941519000004 290.68588699000037 435.2565736600004 282.0413700400004 430.5439453100004 273.2988281200004 C 426.2254127900004 265.3257124100004 421.6681714800004 257.5033914999999 417.0747070300004 249.6862792999999 C 413.1819722000004 243.05331368999992 409.3888476600004 236.37609247999993 405.6782226600004 229.63989257999992 C 402.59021718000037 224.04045152999993 399.4324213800004 218.48376854999992 396.2500000000004 212.93749999999991 C 391.8082967900004 205.1919794099999 387.41874717000036 197.4188996299999 383.0625000000004 189.62499999999991 C 378.30620111000036 181.1167598799999 373.54034275000043 172.6141299299999 368.7500000000004 164.12499999999991 C 368.2009399400004 163.14998534999992 367.6518798800004 162.1749706999999 367.0861816400004 161.1704101599999 C 366.5782104500004 160.27112792999992 366.0702392600004 159.3718456999999 365.5468750000004 158.44531249999991 C 365.1018261700004 157.65656737999993 364.6567773400004 156.86782226999992 364.1982421900004 156.05517577999993 C 363.19391587000047 154.3325965399999 362.1060603100004 152.6590904699999 361.0000000000004 150.99999999999991 C 375.7088550400004 194.64702936999993 375.70885504000046 194.64702936999993 390.7691040000004 238.17361449999993 C 396.21783988000044 253.7060740999999 401.5489142700004 269.2767674500004 406.8444824200004 284.8620605500004 C 410.0864599100004 294.4013273800004 413.3523463000004 303.9303301100004 416.6875000000004 313.4375000000004 C 418.9754216800004 319.9645095200004 421.1567921400004 326.4960851300004 423.1210937500004 333.1289062500004 C 424.4016023000004 337.3119008600004 425.8795267900004 341.4242638900004 427.3632812500004 345.5390625000004 C 428.0000000000004 348.0000000000004 428.0000000000004 348.0000000000004 427.0000000000004 351.0000000000004 C 422.48615418000037 346.5916726500004 418.1540933100004 342.1062979400004 414.0390625000004 337.3242187500004 C 411.4524665500004 334.3758957800004 408.7916328600004 331.5008539400004 406.1250000000004 328.6250000000004 C 401.8023245300004 323.9607616500004 397.5218319500004 319.2630566300004 393.2773437500004 314.5273437500004 C 390.2320016300004 311.1476930600004 387.1536586400004 307.7986866000004 384.0747070300004 304.4497070300004 C 381.2966267900004 301.4247720400004 378.54524588000044 298.37838062000037 375.8125000000004 295.3125000000004 C 370.91660954000037 289.8510193000004 365.8665420800004 284.5371626000004 360.8293457000004 279.2065429700004 C 356.1236957500004 274.2181621100004 351.49014742000037 269.1843478400004 347.0000000000004 264.0000000000004 C 347.4614843700004 264.8017968700004 347.9229687500004 265.6035937500004 348.3984375000004 266.4296875000004 C 351.80294723000037 272.3640305500004 355.17995989000036 278.3094630800004 358.47802734000044 284.30371094000037 C 363.6670108300004 293.72641894000037 369.09280697000037 302.9941275600004 374.5859375000004 312.2421875000004 C 379.8194031300004 321.0547070700004 384.9722664400004 329.9139398700004 390.1206054700004 338.77636719000037 C 391.7971128800004 341.6519977300004 393.4827456800004 344.5219362300004 395.1727294900004 347.38964844000037 C 396.5895953100004 349.7968965800004 397.9998730500004 352.2079643400004 399.4089965800004 354.6197509800004 C 400.4226430400004 356.3496450300004 401.4444193100004 358.0747670400004 402.4663085900004 359.79980469000037 C 403.0742627000004 360.8429785200004 403.6822168000004 361.8861523400004 404.3085937500004 362.9609375000004 C 405.1254162600004 364.3499829100004 405.1254162600004 364.3499829100004 405.9587402300004 365.7670898400004 C 406.4741638200004 366.87238037000037 406.4741638200004 366.87238037000037 407.0000000000004 368.0000000000004 C 406.6700000000004 368.6600000000004 406.34000000000043 369.3200000000004 406.0000000000004 370.0000000000004 C 397.3620497100004 363.4176632000004 388.74437296000036 356.8124960500004 380.1875000000004 350.1250000000004 C 373.0156346600004 344.5246651600004 365.7573652500004 339.0487893100004 358.46386719000037 333.6081543000004 C 352.90177633000036 329.45058290000037 347.40286694000037 325.2212146400004 341.9375000000004 320.9375000000004 C 335.1598053600004 315.6298549800004 328.2790138900004 310.4841801100004 321.3315429700004 305.40136719000037 C 313.3814856600004 299.5742533600004 305.55306569000044 293.5918419200004 297.7226562500004 287.6054687500004 C 293.2563315800004 284.1911766600004 288.76299341000043 280.8159665900004 284.2578125000004 277.4531250000004 C 281.5723605900004 275.4394723000004 278.90651359000043 273.4008850800004 276.2421875000004 271.3593750000004 C 266.9446805700004 264.2385390600004 257.60213909000015 257.2133652499999 248.07617188000015 250.40063476999993 C 242.56353802000015 246.44518177999993 237.21830642000015 242.33984780999992 232.00000000000017 237.99999999999991 C 234.3036064600002 240.9460065099999 236.6174223500002 243.72033700999992 239.31250000000017 246.31249999999991 C 241.7676236600002 248.72601139999992 244.07560674000018 251.19575694000028 246.31250000000017 253.81250000000028 C 249.0761802900002 257.0233375500003 251.98619596000015 260.0226716500004 255.00000000000017 263.0000000000004 C 258.60719127000016 266.5635998300004 261.9947788900003 270.2192485600004 265.2890625000003 274.0703125000004 C 267.7445127700003 276.8397016200004 270.3909633900004 279.4003512400004 273.0273437500004 281.9960937500004 C 275.5733782900004 284.58246151000037 277.9202155700004 287.3153528000004 280.2851562500004 290.0664062500004 C 281.96004299000043 291.9549459700004 283.6994758700004 293.7315564800004 285.5000000000004 295.5000000000004 C 287.9133271700004 297.8704235700004 290.1727185300004 300.3073630800004 292.3750000000004 302.8750000000004 C 294.9663420500004 305.8846753000004 297.6725478300004 308.71088616000037 300.5000000000004 311.5000000000004 C 303.9288279000004 314.8824139900004 307.1204851800004 318.38070442000037 310.2539062500004 322.0351562500004 C 312.72359360000036 324.8142451400004 315.3790332200004 327.3886049600004 318.0273437500004 329.9960937500004 C 320.5733782900004 332.58246151000037 322.9202155700004 335.3153528000004 325.2851562500004 338.0664062500004 C 327.4718733400004 340.5320667500004 329.8070303000004 342.8200878700004 332.1584472700004 345.1271972700004 C 333.9258625900004 346.9246045300004 335.5767975300004 348.7755025300004 337.2187500000004 350.6875000000004 C 341.0298804400004 355.0713082400004 344.99790187000036 359.2908968000004 349.0000000000004 363.5000000000004 C 353.55360411000044 368.2891353600004 358.0220137100004 373.1231126100004 362.3520507800004 378.1157226600004 C 364.82420619000044 380.9424034600004 367.3779904200004 383.6900933100004 369.9375000000004 386.4375000000004 C 374.6940935000004 391.5649999000004 379.3835936200004 396.7454433300004 384.0000000000004 402.0000000000004 C 383.34000000000043 402.3300000000004 382.6800000000004 402.6600000000004 382.0000000000004 403.0000000000004 C 379.3782406800004 401.9637094700004 376.8715754900004 400.8583499300004 374.3281250000004 399.6523437500004 C 373.54710922000044 399.2895884700004 372.7660934400003 398.9268331900004 371.9614105200003 398.5530853300004 C 369.38739120000037 397.3553418300004 366.8187541200004 396.1464891000004 364.2500000000004 394.9375000000004 C 362.4623248300004 394.1029724200004 360.67431737000044 393.2691563200004 358.88598633000043 392.4360351600004 C 355.27759134000036 390.7534898900004 351.6713073800004 389.0665471700004 348.0668945300004 387.3754882800004 C 343.6931499200004 385.3236472900004 339.3148758900004 383.2817810600004 334.9335937500004 381.2460937500004 C 324.5876056800004 376.4357050700004 314.2554579000004 371.5971755900004 303.9414062500004 366.7187500000004 C 302.3956066700004 365.9884070200004 300.84978968000036 365.25810088000037 299.30395508000043 364.5278320300004 C 296.3477159900004 363.1312139400004 293.3933950200004 361.7306476300004 290.4401855500004 360.3276367200004 C 283.38127367000044 356.9848698400004 276.3137998100004 353.7563363900004 269.0000000000004 351.0000000000004 C 281.5607790000004 360.4848717000004 294.2107479700004 369.8259554000004 307.0000000000004 379.0000000000004 C 316.3568160900004 385.7181778800004 325.6810709500004 392.4685035200004 334.8801269500004 399.4016113300004 C 340.1667629100004 403.3841013000004 345.4832287700004 407.3247666300004 350.8125000000004 411.2500000000004 C 352.0156787100004 412.1367944300004 352.0156787100004 412.1367944300004 353.2431640600004 413.0415039100004 C 356.7005452200004 415.5862223400004 360.1619587600004 418.1241619800004 363.6484375000004 420.6289062500004 C 364.6513281300004 421.3494921900004 365.65421875000044 422.0700781300004 366.6875000000004 422.8125000000004 C 367.5369921900004 423.4170703100004 368.3864843800004 424.0216406200004 369.2617187500004 424.6445312500004 C 369.8353515600004 425.0918359400004 370.4089843700004 425.5391406300004 371.0000000000004 426.0000000000004 C 371.0000000000004 426.3300000000004 371.0000000000004 426.6600000000004 371.0000000000004 427.0000000000004 C 366.4771243600004 426.4002010500004 362.0731898600004 425.6275597400004 357.6328125000004 424.5820312500004 C 356.4315673800004 424.3006127900004 355.2303222700004 424.0191943400004 353.9926757800004 423.7292480500004 C 352.7163427700004 423.4267211900004 351.44000977000036 423.1241943400004 350.1250000000004 422.8125000000004 C 348.76940963000044 422.4930708000004 347.4137774700004 422.1738189200004 346.0581054700004 421.8547363300004 C 343.3181702900004 421.2090241700004 340.57877167000044 420.5611040600004 337.8398437500004 419.9111328100004 C 335.49380669000044 419.3544561700004 333.1475151300004 418.79884896000044 330.8007812500004 418.2451171900004 C 320.3476475800004 415.77837303000047 309.9145431600004 413.2380504000004 299.5000000000004 410.6132812500004 C 296.0417067400004 409.7420282900004 292.5833966000004 408.8708426900004 289.1250000000004 408.0000000000004 C 288.2586895800004 407.7818161000004 287.3923791500004 407.56363220000037 286.49981689000043 407.3388366700004 C 274.7826520100004 404.3925182600004 263.0523989100001 401.6023038000004 251.24340820000012 399.0446777300004 C 244.22824014000017 397.5190772800004 237.2671351000002 395.8427562700004 230.31250000000017 394.0625000000004 C 219.60765037000016 391.3292704900004 208.83853778000017 388.9475336800004 198.04052734000012 386.6188964800004 C 188.08027944000017 384.4692376400004 178.14801024000016 382.2159727200004 168.23291016000016 379.8652343800004 C 167.24726074000014 379.6338476600004 166.26161133000014 379.4024609400004 165.24609375000014 379.1640625000004 C 164.39716553000014 378.9624853500004 163.54823730000012 378.7609082000004 162.67358398000013 378.5532226600004 C 159.46541581000017 377.8893829100004 156.24603838000016 377.4372021200004 153.00000000000014 377.0000000000004 C 170.12364880000015 384.5642563600004 187.25282160000015 392.1156598000004 204.39614868000015 399.6352233900004 C 243.49674173000014 416.7868963200004 282.5480734300004 434.0390870000004 321.4064941400004 451.7336425800004 C 331.2459914800004 456.2125839300004 341.1053479100004 460.6441264400004 351.0000000000004 465.0000000000004 C 351.0000000000004 465.3300000000004 351.0000000000004 465.6600000000004 351.0000000000004 466.0000000000004 C 336.31976357000036 466.0633693300004 321.6587680100004 465.9339891900004 306.9831237800004 465.5724792500004 C 281.32027304000036 464.9489636800004 255.66897534000015 464.8877424900004 230.00000000000017 465.0000000000004 C 237.02026789000018 466.5026536300004 244.04117914000017 468.0022743200004 251.06250000000017 469.5000000000004 C 252.11943054000017 469.7255355800004 253.17636108000016 469.95107117000043 254.26531982000017 470.1834411600004 C 269.6840913800002 473.4712224400005 285.1178762400004 476.6740044000004 300.5685119600004 479.8081665000004 C 310.6583972300004 481.8585558300004 320.70289432000044 484.0177132700004 330.70239258000043 486.4785156200004 C 336.43052448000043 487.8878326400004 342.1696398800004 489.0851659800004 348.0000000000004 490.0000000000004 C 348.0000000000004 490.6600000000004 348.0000000000004 491.3200000000004 348.0000000000004 492.0000000000004 C 347.4050170900004 492.0396386700004 346.8100341800004 492.07927734000043 346.1970214800004 492.1201171900004 C 319.2824740800004 493.96696889000043 292.6168399800003 497.6648773500004 266.0000000000003 502.0000000000004 C 264.10846191000024 502.3047827100004 264.10846191000013 502.3047827100004 262.17871094000014 502.6157226600004 C 220.40739751000018 509.3718069500004 178.14846778000003 517.2016856800003 137.53857422000004 529.2470703100004 C 135.60153151000003 529.8215884600004 133.66272496999994 530.3901630900003 131.72314452999996 530.9560546900003 C 117.32627685999995 535.1584251900003 103.02284524999989 539.4967528900004 88.91723632999988 544.6125488300004 C 88.04349364999992 544.9273217800004 87.1697509799999 545.2420947300003 86.2695312499999 545.5664062500003 C 85.1341491699999 545.9832165500003 85.1341491699999 545.9832165500003 83.97583007999988 546.4084472700004 C 81.9999999999999 547.0000000000003 81.9999999999999 547.0000000000003 78.9999999999999 547.0000000000003 C 78.90843885999989 509.93712430000033 78.83795842999992 472.8742656400004 78.7957386799999 435.8112997100004 C 78.79073586999989 431.4353975400004 78.78555857999989 427.0594955900004 78.78027343999987 422.6835937500004 C 78.77922419999989 421.8124327200004 78.7781749499999 420.9412716900004 78.77709391999993 420.0437118400004 C 78.7596900299999 405.9391210000004 78.72815242999992 391.8345953800004 78.69138881999989 377.7300432300004 C 78.6539789399999 363.2568098500004 78.63176404999992 348.7836106200004 78.62364601999992 334.31033087000037 C 78.61815833999988 325.3799612000004 78.60082777999988 316.4497759100004 78.56833412999988 307.51946300000037 C 78.54718566999988 301.3950988600004 78.54080069999988 295.2708299900004 78.5459944899999 289.1464319800004 C 78.54855576999991 285.6132495300004 78.5446374699999 282.0803892300004 78.5231780999999 278.5472641000004 C 78.5000654899999 274.7138857500004 78.5080569899999 270.8809257400004 78.5189819299999 267.0474853500004 C 78.50733056999992 265.9346311800004 78.49567919999988 264.8217770100004 78.48367475999989 263.6751999900004 C 78.55202441999991 254.8091864200004 80.8846491199999 248.5299509399999 86.9999999999999 241.99999999999991 C 89.3554687499999 240.25390624999991 89.3554687499999 240.25390624999991 92.1874999999999 238.56249999999991 C 92.73083983999989 238.23668944999991 93.27417968999988 237.91087890999992 93.8339843799999 237.5751953099999 C 101.99054231999988 232.7411969199999 110.3149569999999 228.18687182999992 118.5976562499999 223.57421874999991 C 133.1037274499999 215.4903199899999 147.46821688000014 207.15682486999992 161.84863281000017 198.8522949199999 C 179.32170691000013 188.7672422599999 196.84370180000016 178.7691764299999 214.41870117000016 168.8627929699999 C 221.63832629000015 164.78625653999993 228.82304655000019 160.65112617999992 236.00000000000017 156.49999999999991 C 245.03399673000018 151.27476610999992 254.0950715700002 146.10187790999993 263.1867675800002 140.97778319999992 C 270.7017796100002 136.74011037999992 278.19831069000037 132.47059209999992 285.6875000000004 128.18749999999991 C 286.27368103000043 127.85227324999991 286.8598620600004 127.51704650999991 287.4638061500004 127.17166137999992 C 290.44919988000044 125.46421005999991 293.4343664000004 123.7563619699999 296.41943359000044 122.0483398399999 C 301.6966951900004 119.0289932099999 306.97592816000036 116.0130968099999 312.2550354000004 112.9969787599999 C 315.1701064700004 111.3314641999999 318.0850465300004 109.6657203699999 321.0000000000004 107.9999999999999 C 322.1666660400004 107.3333322399999 323.33333271000043 106.6666655699999 324.5000000000004 105.9999999999999 C 325.0775000000004 105.6699999999999 325.65500000000037 105.3399999999999 326.2500000000004 104.9999999999999 C 346.66666667000044 93.3333333299999 367.08333333000036 81.6666666699999 387.5000000000004 69.9999999999999 C 388.0774899300004 69.67000503999991 388.6549798600004 69.3400100699999 389.2499694800004 69.0000152599999 C 390.41673537000037 68.3332933499999 391.5835037600004 67.6665758199999 392.7502746600004 66.9998626699999 C 395.66544378000043 65.3340771599999 398.5805694700004 63.66821572999991 401.4956054700004 62.00219726999991 C 406.7634220900004 58.99160249999991 412.0315577000004 55.98157300000002 417.3013000500004 52.97434998000002 C 432.46734465000037 44.31968142000002 447.6102629100005 35.625919510000024 462.7294921900004 26.88964844000002 C 465.54395367000046 25.26349646000002 468.35864128000037 23.63773759000002 471.1736908000004 22.012603760000022 C 472.90215851000033 21.014685190000023 474.6304013400004 20.01637714000002 476.3586425800004 19.01806641000002 C 478.5910656900004 17.73077901000002 480.8252361900004 16.44651643000003 483.0612793000004 15.165527340000027 C 487.5349753100004 12.600191170000027 491.9945295500004 10.034868629999993 496.3554687500004 7.281249999999993 C 503.2951497600004 2.937591019999993 508.7308588900002 0.33570543999999236 517.0000000000002 1.9999999999999925  Z "/>
</svg>